<?xml version="1.0" encoding="UTF-8"?>
<svg id="Layer_1" data-name="Layer 1" xmlns="http://www.w3.org/2000/svg" xmlns:xlink="http://www.w3.org/1999/xlink" viewBox="0 0 260 60.451">
  <defs>
    <style>
      .cls-1 {
        fill: url(#linear-gradient);
      }

      .cls-1, .cls-2 {
        stroke-width: 0px;
      }

      .cls-2 {
        fill: url(#linear-gradient-2);
      }
    </style>
    <linearGradient id="linear-gradient" x1="165.969" y1="60.451" x2="165.969" y2="0" gradientUnits="userSpaceOnUse">
      <stop offset=".001" stop-color="#0095ff"/>
      <stop offset="1" stop-color="#0072ff"/>
    </linearGradient>
    <linearGradient id="linear-gradient-2" x1="27.724" y1="54.029" x2="27.724" y2="33.814" xlink:href="#linear-gradient"/>
  </defs>
  <path class="cls-1" d="M94.372,4.702V.873c0-.537-.336-.873-.94-.873h-20.62c-.537,0-.873.336-.873.873v3.829c0,.605.336.94.873.94h7.321v40.435c0,.605.336.94.873.94h4.232c.605,0,.94-.336.94-.94V5.642h7.254c.605,0,.94-.336.94-.94ZM104.298,12.695c-5.978,0-9.941,4.164-10.344,10.008,0,.537.336.94.873.94h3.896c.605,0,.873-.201.94-.806.201-2.754,1.746-4.635,4.567-4.635,3.023,0,4.836,2.082,4.836,5.105v3.694h-5.038c-6.314,0-10.612,4.299-10.612,9.874,0,6.314,4.366,10.814,10.881,10.814h0c6.448,0,10.478-4.433,10.478-10.612v-13.501c0-6.314-4.097-10.881-10.478-10.881ZM109.067,37.077c0,3.09-1.746,5.105-4.836,5.105-3.157,0-5.038-2.082-5.038-5.306,0-2.62,1.881-4.702,5.038-4.702h4.836v4.903ZM125.635,22.232c0-2.418,1.813-4.097,4.567-4.097,2.888,0,4.433,1.881,4.635,4.5.067.537.403.873.94.873h3.963c.672,0,.873-.47.873-.94-.201-5.239-3.358-9.874-10.545-9.874-6.045,0-10.142,4.03-10.142,9.403,0,11.016,15.449,9.202,15.449,15.986,0,2.418-1.612,4.164-4.702,4.164-3.493,0-5.105-1.881-5.373-5.306-.067-.672-.47-.873-.94-.873h-3.896c-.739,0-.94.47-.94,1.008.202,5.911,4.232,10.68,11.217,10.68,6.247,0,10.411-4.164,10.411-9.605,0-11.284-15.516-9.471-15.516-15.919ZM167.395,13.434h-4.164c-.47,0-.806.201-1.075.672l-6.112,12.896h-3.224V.873c0-.537-.336-.873-.94-.873h-3.896c-.604,0-.94.336-.94.873v45.204c0,.605.336.94.94.94h3.896c.604,0,.94-.336.94-.94v-13.635h4.03c3.023,0,5.105,1.948,5.105,4.97v8.665c0,.605.336.94.873.94h3.963c.537,0,.873-.336.873-.94v-8.463c0-4.5-2.418-7.993-6.112-9.471h0l6.65-13.635c.269-.672-.134-1.075-.806-1.075ZM183.084,12.695c-6.448,0-10.747,4.567-10.747,10.948v13.165c0,6.381,4.299,10.948,10.747,10.948,6.515,0,10.747-4.567,10.747-10.948v-13.165c0-6.381-4.232-10.948-10.747-10.948ZM188.054,37.009c0,3.157-1.881,5.306-4.97,5.306s-4.903-2.149-4.903-5.306v-13.568c0-3.157,1.813-5.306,4.903-5.306s4.97,2.149,4.97,5.306v13.568ZM210.383,12.695c-6.448,0-10.747,4.567-10.747,10.948v35.935c0,.537.336.873.94.873h3.963c.537,0,.873-.336.873-.873v-14.105c1.545,1.411,3.493,2.284,5.911,2.284,5.441,0,9.739-4.567,9.739-10.948v-13.165c0-6.381-4.299-10.948-10.68-10.948ZM215.286,37.009c0,3.157-1.814,5.239-4.903,5.239s-4.97-2.082-4.97-5.239v-13.568c0-3.157,1.881-5.239,4.97-5.239s4.903,2.082,4.903,5.239v13.568ZM232.165,13.434h-3.896c-.605,0-.94.336-.94.873v31.77c0,.605.336.94.94.94h3.896c.604,0,.94-.336.94-.94V14.307c0-.537-.336-.873-.94-.873ZM230.218,2.284c-2.015,0-3.426,1.478-3.426,3.493,0,1.948,1.41,3.426,3.426,3.426,1.948,0,3.493-1.612,3.493-3.426,0-2.015-1.545-3.493-3.493-3.493ZM249.522,12.695c-5.978,0-9.941,4.164-10.344,10.008,0,.537.336.94.873.94h3.896c.604,0,.873-.201.94-.806.202-2.754,1.746-4.635,4.567-4.635,3.023,0,4.836,2.082,4.836,5.105v3.694h-5.038c-6.314,0-10.612,4.299-10.612,9.874,0,6.314,4.366,10.814,10.881,10.814,6.448,0,10.478-4.433,10.478-10.612v-13.501c0-6.314-4.097-10.881-10.478-10.881ZM254.291,37.077c0,3.09-1.746,5.105-4.836,5.105-3.157,0-5.038-2.082-5.038-5.306,0-2.62,1.881-4.702,5.038-4.702h4.836v4.903Z"/>
  <path class="cls-2" d="M3.464,6.903c1.862-.022,3.445-1.672,3.393-3.536C6.806,1.493,5.14-.071,3.287.013,1.501.094.017,1.643.006,3.437c-.012,1.877,1.596,3.489,3.459,3.466ZM18.254,6.912c5.421.012,10.843.004,16.265.003,5.566,0,11.132.011,16.698-.005,2.589-.007,4.168-1.286,4.23-3.359C55.511,1.394,53.88.01,51.188.008,40.201-.003,29.213-.002,18.226.007c-2.737.002-4.346,1.309-4.336,3.464.01,2.16,1.605,3.435,4.364,3.442ZM3.506,47.123c-1.87-.045-3.488,1.536-3.501,3.422-.013,1.79,1.458,3.364,3.241,3.469,1.845.109,3.537-1.444,3.614-3.315.077-1.867-1.484-3.53-3.354-3.575ZM51.257,31.416c-6.722-.015-13.444-.015-20.166,0-2.588.006-4.151,1.302-4.186,3.394-.037,2.159,1.581,3.496,4.296,3.509,3.253.016,6.505.004,9.758.004,3.397,0,6.794.012,10.191-.004,2.709-.012,4.336-1.357,4.297-3.51-.037-2.083-1.612-3.387-4.19-3.393ZM50.931,47.116c-5.35-.007-10.699-.002-16.049-.002-5.494,0-10.988-.005-16.483.002-2.917.004-4.55,1.282-4.512,3.505.037,2.149,1.632,3.401,4.402,3.402,10.916.008,21.832.007,32.748,0,2.763-.002,4.371-1.261,4.408-3.401.039-2.215-1.606-3.502-4.515-3.506ZM51.385,15.714c-6.794-.021-13.589-.02-20.383,0-2.54.007-4.121,1.387-4.098,3.481.023,2.09,1.595,3.402,4.167,3.419,3.325.022,6.65.005,9.975.005,3.469,0,6.939.022,10.408-.008,2.401-.021,3.945-1.363,3.992-3.377.049-2.097-1.538-3.512-4.061-3.52ZM20.744,27.254c.129-5.776-4.553-10.629-10.295-10.669C4.784,16.545.07,21.19,0,26.88c-.069,5.694,4.529,10.462,10.185,10.563,5.654.101,10.431-4.51,10.558-10.19ZM13.807,27.658c-.219,1.168-1.019,2.139-2.084,2.593-.426.182-.895.28-1.385.276-1.882-.018-3.418-1.545-3.459-3.44-.042-1.983,1.552-3.605,3.524-3.586,1.883.018,3.423,1.545,3.463,3.435.005.247-.015.488-.059.721Z"/>
</svg>